{"title":"Ghost of Goodnight Lane 2014 480p WEBrip XVID AC3 ACAB","uid":10344142,"size":1767150832,"categoryP":"video","categoryS":"movies","magnet":"?xt=urn:btih:cdd18718e0dd81dcb3380b0037d498f5d949ecd6&amp;dn=Ghost+of+Goodnight+Lane+2014+480p+WEBrip+XVID+AC3+ACAB&amp;tr=udp%3A%2F%2Ftracker.openbittorrent.com%3A80&amp;tr=udp%3A%2F%2Fopen.demonii.com%3A1337&amp;tr=udp%3A%2F%2Ftracker.coppersurfer.tk%3A6969&amp;tr=udp%3A%2F%2Fexodus.desync.com%3A6969","seeders":0,"leechers":0,"uploader":"Xetron","files":3,"time":1402582781,"description":" &lt;a href=&quot;http://s1.postimg.org/476onvgsv/vbbcbc.jpg&quot; rel=&quot;nofollow&quot; target=&quot;_NEW&quot;&gt;http://s1.postimg.org/476onvgsv/vbbcbc.jpg&lt;/a&gt;\n\n\nFormat                                   : AVI\nFormat/Info                              : Audio Video Interleave\nFile size                                : 1.63 GiB\nDuration                                 : 1h 37mn\nOverall bit rate                         : 2 387 Kbps\nWriting library                          : VirtualDub build 30091/release\n\nVideo\nID                                       : 0\nFormat                                   : MPEG-4 Visual\nFormat profile                           : Advanced Simple@L5\nFormat settings, BVOP                    : 2\nFormat settings, QPel                    : No\nFormat settings, GMC                     : No warppoints\nFormat settings, Matrix                  : Default (H.263)\nMuxing mode                              : Packed bitstream\nCodec ID                                 : XVID\nCodec ID/Hint                            : XviD\nDuration                                 : 1h 37mn\nBit rate                                 : 1 993 Kbps\nWidth                                    : 848 pixels\nHeight                                   : 352 pixels\nDisplay aspect ratio                     : 2.40:1\nFrame rate                               : 23.976 fps\nColor space                              : YUV\nChroma subsampling                       : 4:2:0\nBit depth                                : 8 bits\nScan type                                : Progressive\nCompression mode                         : Lossy\nBits/(Pixel*Frame)                       : 0.279\nStream size                              : 1.36 GiB (84%)\nWriting library                          : XviD 1.2.1 (UTC 2008-12-04)\n\nAudio\nID                                       : 1\nFormat                                   : AC-3\nFormat/Info                              : Audio Coding 3\nMode extension                           : CM (complete main)\nFormat settings, Endianness              : Big\nCodec ID                                 : 2000\nDuration                                 : 1h 37mn\nBit rate mode                            : Constant\nBit rate                                 : 384 Kbps\nChannel(s)                               : 6 channels\nChannel positions                        : Front: L C R, Side: L R, LFE\nSampling rate                            : 48.0 KHz\nBit depth                                : 16 bits\nCompression mode                         : Lossy\nStream size                              : 268 MiB (16%)\n &lt;a href=&quot;\nhttp://s1.postimg.org/j4f5ovu1b/image.png&quot; rel=&quot;nofollow&quot; target=&quot;_NEW&quot;&gt;\nhttp://s1.postimg.org/j4f5ovu1b/image.png&lt;/a&gt; &lt;a href=&quot;\nhttp://s1.postimg.org/dhne55gwf/image.png&quot; rel=&quot;nofollow&quot; target=&quot;_NEW&quot;&gt;\nhttp://s1.postimg.org/dhne55gwf/image.png&lt;/a&gt; &lt;a href=&quot;\nhttp://s1.postimg.org/b1lkraytr/image.png&quot; rel=&quot;nofollow&quot; target=&quot;_NEW&quot;&gt;\nhttp://s1.postimg.org/b1lkraytr/image.png&lt;/a&gt; &lt;a href=&quot;\nhttp://s1.postimg.org/3znn53v7z/image.png&quot; rel=&quot;nofollow&quot; target=&quot;_NEW&quot;&gt;\nhttp://s1.postimg.org/3znn53v7z/image.png&lt;/a&gt;\n","torrent":{"xt":"urn:btih:cdd18718e0dd81dcb3380b0037d498f5d949ecd6","amp;dn":"Ghost+of+Goodnight+Lane+2014+480p+WEBrip+XVID+AC3+ACAB","amp;tr":["udp%3A%2F%2Ftracker.openbittorrent.com%3A80","udp%3A%2F%2Fopen.demonii.com%3A1337","udp%3A%2F%2Ftracker.coppersurfer.tk%3A6969","udp%3A%2F%2Fexodus.desync.com%3A6969"],"infoHash":"cdd18718e0dd81dcb3380b0037d498f5d949ecd6","infoHashBuffer":{"type":"Buffer","data":[205,209,135,24,224,221,129,220,179,56,11,0,55,212,152,245,217,73,236,214]},"announce":[],"urlList":[]}}